<mxfile host="app.diagrams.net" modified="2021-08-25T02:24:31.376Z" agent="5.0 (Macintosh; Intel Mac OS X 10_15_7) AppleWebKit/537.36 (KHTML, like Gecko) Chrome/92.0.4515.131 Safari/537.36" etag="kRaJX2NI8eqsdzGDcU_6" version="14.9.8" type="github">
  <diagram id="CgHuMHWb_MgUtAC-TnG3" name="Page-1">
    <mxGraphModel dx="2082" dy="811" grid="1" gridSize="10" guides="1" tooltips="1" connect="1" arrows="1" fold="1" page="1" pageScale="1" pageWidth="827" pageHeight="1169" math="0" shadow="0">
      <root>
        <mxCell id="0" />
        <mxCell id="1" parent="0" />
        <mxCell id="HVg_R_1ZHr7gGvRmpxuw-1" value="" style="rounded=0;whiteSpace=wrap;html=1;fillColor=#b0e3e6;strokeColor=#0e8088;fontFamily=TencentSans;" parent="1" vertex="1">
          <mxGeometry x="640" y="160" width="130" height="320" as="geometry" />
        </mxCell>
        <mxCell id="HVg_R_1ZHr7gGvRmpxuw-2" value="&lt;b style=&quot;font-size: 30px;&quot;&gt;&lt;font style=&quot;font-size: 30px;&quot;&gt;运营系统&lt;/font&gt;&lt;/b&gt;" style="text;html=1;strokeColor=none;fillColor=none;align=center;verticalAlign=middle;whiteSpace=wrap;rounded=0;fontFamily=TencentSans;fontSize=30;fontColor=#1306F0;" parent="1" vertex="1">
          <mxGeometry x="632.5" y="111" width="145" height="30" as="geometry" />
        </mxCell>
        <mxCell id="HVg_R_1ZHr7gGvRmpxuw-3" value="事件管理" style="rounded=0;whiteSpace=wrap;html=1;fontFamily=TencentSans;fontSize=20;" parent="1" vertex="1">
          <mxGeometry x="655" y="180" width="100" height="50" as="geometry" />
        </mxCell>
        <mxCell id="HVg_R_1ZHr7gGvRmpxuw-4" value="规则管理" style="rounded=0;whiteSpace=wrap;html=1;fontFamily=TencentSans;fontSize=20;" parent="1" vertex="1">
          <mxGeometry x="655" y="260" width="100" height="50" as="geometry" />
        </mxCell>
        <mxCell id="HVg_R_1ZHr7gGvRmpxuw-5" value="模型管理" style="rounded=0;whiteSpace=wrap;html=1;fontFamily=TencentSans;fontSize=20;" parent="1" vertex="1">
          <mxGeometry x="655" y="340" width="100" height="50" as="geometry" />
        </mxCell>
        <mxCell id="HVg_R_1ZHr7gGvRmpxuw-6" value="特征管理" style="rounded=0;whiteSpace=wrap;html=1;fontFamily=TencentSans;fontSize=20;" parent="1" vertex="1">
          <mxGeometry x="655" y="410" width="100" height="50" as="geometry" />
        </mxCell>
        <mxCell id="HVg_R_1ZHr7gGvRmpxuw-14" value="&lt;b style=&quot;font-size: 30px&quot;&gt;&lt;font style=&quot;font-size: 30px&quot;&gt;业务系统&lt;/font&gt;&lt;/b&gt;" style="text;html=1;strokeColor=none;fillColor=none;align=center;verticalAlign=middle;whiteSpace=wrap;rounded=0;fontFamily=TencentSans;fontSize=30;fontColor=#1306F0;" parent="1" vertex="1">
          <mxGeometry x="-160" y="136.25" width="130" height="37.5" as="geometry" />
        </mxCell>
        <mxCell id="HVg_R_1ZHr7gGvRmpxuw-16" value="" style="group;fontFamily=TencentSans;" parent="1" vertex="1" connectable="0">
          <mxGeometry x="-20" y="120" width="570" height="70" as="geometry" />
        </mxCell>
        <mxCell id="HVg_R_1ZHr7gGvRmpxuw-13" value="" style="group;strokeColor=#36393d;fillColor=#E6E6E6;container=0;fontFamily=TencentSans;" parent="HVg_R_1ZHr7gGvRmpxuw-16" vertex="1" connectable="0">
          <mxGeometry width="570" height="70" as="geometry" />
        </mxCell>
        <mxCell id="HVg_R_1ZHr7gGvRmpxuw-7" value="" style="rounded=0;whiteSpace=wrap;html=1;fillColor=#eeeeee;strokeColor=#36393d;fontFamily=TencentSans;" parent="HVg_R_1ZHr7gGvRmpxuw-16" vertex="1">
          <mxGeometry width="570" height="70" as="geometry" />
        </mxCell>
        <mxCell id="HVg_R_1ZHr7gGvRmpxuw-8" value="关注" style="rounded=0;whiteSpace=wrap;html=1;fontFamily=TencentSans;fontStyle=1;fontSize=20;" parent="HVg_R_1ZHr7gGvRmpxuw-16" vertex="1">
          <mxGeometry x="16.581818181818182" y="15" width="93.27272727272728" height="40" as="geometry" />
        </mxCell>
        <mxCell id="HVg_R_1ZHr7gGvRmpxuw-9" value="评论" style="rounded=0;whiteSpace=wrap;html=1;fontFamily=TencentSans;fontStyle=1;fontSize=20;" parent="HVg_R_1ZHr7gGvRmpxuw-16" vertex="1">
          <mxGeometry x="130.5818181818182" y="15" width="93.27272727272728" height="40" as="geometry" />
        </mxCell>
        <mxCell id="HVg_R_1ZHr7gGvRmpxuw-10" value="红包" style="rounded=0;whiteSpace=wrap;html=1;fontFamily=TencentSans;fontStyle=1;fontSize=20;" parent="HVg_R_1ZHr7gGvRmpxuw-16" vertex="1">
          <mxGeometry x="254.94545454545454" y="15" width="93.27272727272728" height="40" as="geometry" />
        </mxCell>
        <mxCell id="HVg_R_1ZHr7gGvRmpxuw-11" value="提现" style="rounded=0;whiteSpace=wrap;html=1;fontFamily=TencentSans;fontStyle=1;fontSize=20;" parent="HVg_R_1ZHr7gGvRmpxuw-16" vertex="1">
          <mxGeometry x="373.0909090909091" y="15" width="93.27272727272728" height="40" as="geometry" />
        </mxCell>
        <mxCell id="HVg_R_1ZHr7gGvRmpxuw-12" value="。。。。" style="text;html=1;strokeColor=none;fillColor=none;align=center;verticalAlign=middle;whiteSpace=wrap;rounded=0;fontFamily=TencentSans;" parent="HVg_R_1ZHr7gGvRmpxuw-16" vertex="1">
          <mxGeometry x="500.04545454545456" y="25" width="41.45454545454545" height="20" as="geometry" />
        </mxCell>
        <mxCell id="HVg_R_1ZHr7gGvRmpxuw-17" value="&lt;b style=&quot;font-size: 30px&quot;&gt;&lt;font style=&quot;font-size: 30px&quot;&gt;接入系统&lt;/font&gt;&lt;/b&gt;" style="text;html=1;strokeColor=none;fillColor=none;align=center;verticalAlign=middle;whiteSpace=wrap;rounded=0;fontFamily=TencentSans;fontSize=30;fontColor=#1306F0;" parent="1" vertex="1">
          <mxGeometry x="-170" y="310" width="150" height="37.5" as="geometry" />
        </mxCell>
        <mxCell id="HVg_R_1ZHr7gGvRmpxuw-25" value="接入" style="html=1;shadow=0;dashed=0;align=center;verticalAlign=middle;shape=mxgraph.arrows2.arrow;dy=0.6;dx=40;direction=south;notch=0;fillColor=#f9f7ed;strokeColor=#36393d;fontFamily=TencentSans;fontSize=20;" parent="1" vertex="1">
          <mxGeometry x="190" y="210" width="150" height="60" as="geometry" />
        </mxCell>
        <mxCell id="HVg_R_1ZHr7gGvRmpxuw-31" value="" style="group;fontFamily=TencentSans;" parent="1" vertex="1" connectable="0">
          <mxGeometry x="-20" y="290" width="570" height="90" as="geometry" />
        </mxCell>
        <mxCell id="HVg_R_1ZHr7gGvRmpxuw-15" value="" style="rounded=0;whiteSpace=wrap;html=1;fillColor=#dae8fc;strokeColor=#6c8ebf;fontFamily=TencentSans;" parent="HVg_R_1ZHr7gGvRmpxuw-31" vertex="1">
          <mxGeometry width="570" height="90" as="geometry" />
        </mxCell>
        <mxCell id="HVg_R_1ZHr7gGvRmpxuw-18" value="数据/维度接入" style="rounded=0;whiteSpace=wrap;html=1;fontFamily=TencentSans;fontSize=20;" parent="HVg_R_1ZHr7gGvRmpxuw-31" vertex="1">
          <mxGeometry x="20" y="20" width="100" height="50" as="geometry" />
        </mxCell>
        <mxCell id="HVg_R_1ZHr7gGvRmpxuw-19" value="事件配置" style="rounded=0;whiteSpace=wrap;html=1;fontFamily=TencentSans;fontSize=20;" parent="HVg_R_1ZHr7gGvRmpxuw-31" vertex="1">
          <mxGeometry x="170" y="20" width="100" height="50" as="geometry" />
        </mxCell>
        <mxCell id="HVg_R_1ZHr7gGvRmpxuw-20" value="" style="edgeStyle=orthogonalEdgeStyle;rounded=0;orthogonalLoop=1;jettySize=auto;html=1;fontFamily=TencentSans;" parent="HVg_R_1ZHr7gGvRmpxuw-31" source="HVg_R_1ZHr7gGvRmpxuw-18" target="HVg_R_1ZHr7gGvRmpxuw-19" edge="1">
          <mxGeometry relative="1" as="geometry" />
        </mxCell>
        <mxCell id="HVg_R_1ZHr7gGvRmpxuw-27" value="策略配置" style="rounded=0;whiteSpace=wrap;html=1;fontFamily=TencentSans;fontSize=20;" parent="HVg_R_1ZHr7gGvRmpxuw-31" vertex="1">
          <mxGeometry x="320" y="20" width="100" height="50" as="geometry" />
        </mxCell>
        <mxCell id="HVg_R_1ZHr7gGvRmpxuw-28" value="" style="edgeStyle=orthogonalEdgeStyle;rounded=0;orthogonalLoop=1;jettySize=auto;html=1;fontFamily=TencentSans;" parent="HVg_R_1ZHr7gGvRmpxuw-31" source="HVg_R_1ZHr7gGvRmpxuw-19" target="HVg_R_1ZHr7gGvRmpxuw-27" edge="1">
          <mxGeometry relative="1" as="geometry" />
        </mxCell>
        <mxCell id="HVg_R_1ZHr7gGvRmpxuw-29" value="决策配置" style="rounded=0;whiteSpace=wrap;html=1;fontFamily=TencentSans;fontSize=20;" parent="HVg_R_1ZHr7gGvRmpxuw-31" vertex="1">
          <mxGeometry x="460" y="20" width="100" height="50" as="geometry" />
        </mxCell>
        <mxCell id="HVg_R_1ZHr7gGvRmpxuw-30" value="" style="edgeStyle=orthogonalEdgeStyle;rounded=0;orthogonalLoop=1;jettySize=auto;html=1;fontFamily=TencentSans;" parent="HVg_R_1ZHr7gGvRmpxuw-31" source="HVg_R_1ZHr7gGvRmpxuw-27" target="HVg_R_1ZHr7gGvRmpxuw-29" edge="1">
          <mxGeometry relative="1" as="geometry" />
        </mxCell>
        <mxCell id="3dWUOVySmQdVNzKVr4_l-1" value="" style="edgeStyle=orthogonalEdgeStyle;rounded=0;orthogonalLoop=1;jettySize=auto;html=1;fontSize=30;" edge="1" parent="1" source="HVg_R_1ZHr7gGvRmpxuw-32" target="HVg_R_1ZHr7gGvRmpxuw-36">
          <mxGeometry relative="1" as="geometry" />
        </mxCell>
        <mxCell id="HVg_R_1ZHr7gGvRmpxuw-32" value="&lt;b style=&quot;font-size: 30px;&quot;&gt;&lt;font style=&quot;font-size: 30px;&quot;&gt;分析系统&lt;/font&gt;&lt;/b&gt;" style="text;html=1;strokeColor=none;fillColor=none;align=center;verticalAlign=middle;whiteSpace=wrap;rounded=0;fontFamily=TencentSans;fontSize=30;fontColor=#1306F0;" parent="1" vertex="1">
          <mxGeometry x="611.25" y="494.75" width="187.5" height="30" as="geometry" />
        </mxCell>
        <mxCell id="HVg_R_1ZHr7gGvRmpxuw-33" value="配置" style="html=1;shadow=0;dashed=0;align=center;verticalAlign=middle;shape=mxgraph.arrows2.arrow;dy=0.6;dx=40;flipH=1;notch=0;fillColor=#ffffff;fontFamily=TencentSans;fontSize=20;" parent="1" vertex="1">
          <mxGeometry x="560" y="260" width="64" height="160" as="geometry" />
        </mxCell>
        <mxCell id="HVg_R_1ZHr7gGvRmpxuw-40" value="更新" style="html=1;shadow=0;dashed=0;align=center;verticalAlign=middle;shape=mxgraph.arrows2.arrow;dy=0.6;dx=40;notch=0;fillColor=#ffffff;fontFamily=TencentSans;fontSize=20;" parent="1" vertex="1">
          <mxGeometry x="568.5" y="587" width="64" height="125" as="geometry" />
        </mxCell>
        <mxCell id="HVg_R_1ZHr7gGvRmpxuw-41" value="客诉系统" style="rounded=0;whiteSpace=wrap;html=1;fontFamily=TencentSans;fontSize=20;" parent="1" vertex="1">
          <mxGeometry x="790.75" y="235" width="115" height="55" as="geometry" />
        </mxCell>
        <mxCell id="HVg_R_1ZHr7gGvRmpxuw-42" value="审理系统" style="rounded=0;whiteSpace=wrap;html=1;fontFamily=TencentSans;fontSize=20;" parent="1" vertex="1">
          <mxGeometry x="790.75" y="160" width="115" height="55" as="geometry" />
        </mxCell>
        <mxCell id="HVg_R_1ZHr7gGvRmpxuw-43" value="。&lt;br&gt;。&lt;br&gt;。&lt;br&gt;。&lt;br&gt;。" style="text;html=1;strokeColor=none;fillColor=none;align=center;verticalAlign=middle;whiteSpace=wrap;rounded=0;fontFamily=TencentSans;" parent="1" vertex="1">
          <mxGeometry x="827" y="355" width="42.5" height="92.5" as="geometry" />
        </mxCell>
        <mxCell id="HVg_R_1ZHr7gGvRmpxuw-45" value="&lt;b style=&quot;font-size: 30px;&quot;&gt;&lt;font style=&quot;font-size: 30px;&quot;&gt;其他系统&lt;/font&gt;&lt;/b&gt;" style="text;html=1;strokeColor=none;fillColor=none;align=center;verticalAlign=middle;whiteSpace=wrap;rounded=0;fontFamily=TencentSans;fontSize=30;fontColor=#1306F0;" parent="1" vertex="1">
          <mxGeometry x="776.5" y="111" width="164.25" height="30" as="geometry" />
        </mxCell>
        <mxCell id="HVg_R_1ZHr7gGvRmpxuw-47" value="" style="rounded=0;whiteSpace=wrap;html=1;fillColor=#ffffff;fontFamily=TencentSans;" parent="1" vertex="1">
          <mxGeometry x="-20" y="670" width="570" height="110" as="geometry" />
        </mxCell>
        <mxCell id="HVg_R_1ZHr7gGvRmpxuw-49" value="&lt;b style=&quot;font-size: 30px&quot;&gt;&lt;font style=&quot;font-size: 30px&quot;&gt;策略引擎&lt;/font&gt;&lt;/b&gt;" style="text;html=1;strokeColor=none;fillColor=none;align=center;verticalAlign=middle;whiteSpace=wrap;rounded=0;fontFamily=TencentSans;fontSize=30;fontColor=#1306F0;" parent="1" vertex="1">
          <mxGeometry x="-160" y="494.75" width="130" height="37.5" as="geometry" />
        </mxCell>
        <mxCell id="HVg_R_1ZHr7gGvRmpxuw-50" value="&lt;b style=&quot;font-size: 30px&quot;&gt;&lt;font style=&quot;font-size: 30px&quot;&gt;特征引擎&lt;br&gt;&lt;/font&gt;&lt;/b&gt;" style="text;html=1;strokeColor=none;fillColor=none;align=center;verticalAlign=middle;whiteSpace=wrap;rounded=0;fontFamily=TencentSans;fontSize=30;fontColor=#1306F0;" parent="1" vertex="1">
          <mxGeometry x="-160" y="706.25" width="130" height="37.5" as="geometry" />
        </mxCell>
        <mxCell id="HVg_R_1ZHr7gGvRmpxuw-62" value="" style="group;fontFamily=TencentSans;" parent="1" vertex="1" connectable="0">
          <mxGeometry x="-20" y="430" width="570" height="190" as="geometry" />
        </mxCell>
        <mxCell id="HVg_R_1ZHr7gGvRmpxuw-46" value="" style="rounded=0;whiteSpace=wrap;html=1;fillColor=#f9f7ed;strokeColor=#36393d;fontFamily=TencentSans;" parent="HVg_R_1ZHr7gGvRmpxuw-62" vertex="1">
          <mxGeometry width="570" height="190" as="geometry" />
        </mxCell>
        <mxCell id="HVg_R_1ZHr7gGvRmpxuw-51" value="规则运行时" style="rounded=0;whiteSpace=wrap;html=1;fillColor=#ffffff;fontFamily=TencentSans;fontSize=20;" parent="HVg_R_1ZHr7gGvRmpxuw-62" vertex="1">
          <mxGeometry x="20" y="22.5" width="110" height="50" as="geometry" />
        </mxCell>
        <mxCell id="HVg_R_1ZHr7gGvRmpxuw-52" value="模型运行时" style="rounded=0;whiteSpace=wrap;html=1;fillColor=#ffffff;fontFamily=TencentSans;fontSize=20;" parent="HVg_R_1ZHr7gGvRmpxuw-62" vertex="1">
          <mxGeometry x="20" y="112.5" width="110" height="50" as="geometry" />
        </mxCell>
        <mxCell id="HVg_R_1ZHr7gGvRmpxuw-53" value="决策路由" style="rounded=0;whiteSpace=wrap;html=1;fillColor=#ffffff;fontFamily=TencentSans;fontSize=20;" parent="HVg_R_1ZHr7gGvRmpxuw-62" vertex="1">
          <mxGeometry x="230" y="72.5" width="110" height="50" as="geometry" />
        </mxCell>
        <mxCell id="HVg_R_1ZHr7gGvRmpxuw-54" value="快照&amp;amp;监控" style="rounded=0;whiteSpace=wrap;html=1;fillColor=#ffffff;fontFamily=TencentSans;fontSize=20;" parent="HVg_R_1ZHr7gGvRmpxuw-62" vertex="1">
          <mxGeometry x="430" y="72.5" width="110" height="50" as="geometry" />
        </mxCell>
        <mxCell id="HVg_R_1ZHr7gGvRmpxuw-60" value="" style="shape=flexArrow;endArrow=classic;html=1;fontFamily=TencentSans;" parent="HVg_R_1ZHr7gGvRmpxuw-62" edge="1">
          <mxGeometry width="50" height="50" relative="1" as="geometry">
            <mxPoint x="150" y="92.5" as="sourcePoint" />
            <mxPoint x="210" y="92.5" as="targetPoint" />
          </mxGeometry>
        </mxCell>
        <mxCell id="HVg_R_1ZHr7gGvRmpxuw-61" value="" style="shape=flexArrow;endArrow=classic;html=1;fontFamily=TencentSans;" parent="HVg_R_1ZHr7gGvRmpxuw-62" edge="1">
          <mxGeometry width="50" height="50" relative="1" as="geometry">
            <mxPoint x="354" y="97" as="sourcePoint" />
            <mxPoint x="414" y="97" as="targetPoint" />
          </mxGeometry>
        </mxCell>
        <mxCell id="HVg_R_1ZHr7gGvRmpxuw-63" value="统计特征" style="shape=cylinder3;whiteSpace=wrap;html=1;boundedLbl=1;backgroundOutline=1;size=15;fillColor=#ffffff;fontFamily=TencentSans;fontSize=20;" parent="1" vertex="1">
          <mxGeometry x="40" y="685" width="60" height="80" as="geometry" />
        </mxCell>
        <mxCell id="HVg_R_1ZHr7gGvRmpxuw-64" value="画像特征" style="shape=cylinder3;whiteSpace=wrap;html=1;boundedLbl=1;backgroundOutline=1;size=15;fillColor=#ffffff;fontFamily=TencentSans;fontSize=20;" parent="1" vertex="1">
          <mxGeometry x="160" y="685" width="60" height="80" as="geometry" />
        </mxCell>
        <mxCell id="HVg_R_1ZHr7gGvRmpxuw-65" value="设备特征" style="shape=cylinder3;whiteSpace=wrap;html=1;boundedLbl=1;backgroundOutline=1;size=15;fillColor=#ffffff;fontFamily=TencentSans;fontSize=20;" parent="1" vertex="1">
          <mxGeometry x="280" y="685" width="60" height="80" as="geometry" />
        </mxCell>
        <mxCell id="HVg_R_1ZHr7gGvRmpxuw-66" value="名单特征" style="shape=cylinder3;whiteSpace=wrap;html=1;boundedLbl=1;backgroundOutline=1;size=15;fillColor=#ffffff;fontFamily=TencentSans;fontSize=20;" parent="1" vertex="1">
          <mxGeometry x="414" y="685" width="60" height="80" as="geometry" />
        </mxCell>
        <mxCell id="3dWUOVySmQdVNzKVr4_l-2" value="" style="group" vertex="1" connectable="0" parent="1">
          <mxGeometry x="640" y="540" width="130" height="260" as="geometry" />
        </mxCell>
        <mxCell id="HVg_R_1ZHr7gGvRmpxuw-34" value="" style="rounded=0;whiteSpace=wrap;html=1;fontFamily=TencentSans;" parent="3dWUOVySmQdVNzKVr4_l-2" vertex="1">
          <mxGeometry width="130" height="260" as="geometry" />
        </mxCell>
        <mxCell id="HVg_R_1ZHr7gGvRmpxuw-35" value="行为分析" style="rounded=0;whiteSpace=wrap;html=1;fontFamily=TencentSans;fontSize=20;" parent="3dWUOVySmQdVNzKVr4_l-2" vertex="1">
          <mxGeometry x="15" y="17" width="100" height="50" as="geometry" />
        </mxCell>
        <mxCell id="HVg_R_1ZHr7gGvRmpxuw-36" value="风险大盘&amp;amp;预警" style="rounded=0;whiteSpace=wrap;html=1;fontFamily=TencentSans;fontSize=20;" parent="3dWUOVySmQdVNzKVr4_l-2" vertex="1">
          <mxGeometry x="15" y="77" width="100" height="50" as="geometry" />
        </mxCell>
        <mxCell id="HVg_R_1ZHr7gGvRmpxuw-37" value="关联反查" style="rounded=0;whiteSpace=wrap;html=1;fontFamily=TencentSans;fontSize=20;" parent="3dWUOVySmQdVNzKVr4_l-2" vertex="1">
          <mxGeometry x="15" y="137" width="100" height="50" as="geometry" />
        </mxCell>
        <mxCell id="HVg_R_1ZHr7gGvRmpxuw-38" value="用户画像" style="rounded=0;whiteSpace=wrap;html=1;fontFamily=TencentSans;fontSize=20;" parent="3dWUOVySmQdVNzKVr4_l-2" vertex="1">
          <mxGeometry x="15" y="197" width="100" height="50" as="geometry" />
        </mxCell>
      </root>
    </mxGraphModel>
  </diagram>
</mxfile>
